<svg id="Capa_1" enable-background="new 0 0 495 495" height="512" viewBox="0 0 495 495" width="512" xmlns="http://www.w3.org/2000/svg"><g><path d="m120 11.5 13.5-11.5h288c11.046 0 20 8.954 20 20v168l-34.117 87.5 34.117 68.5v131c0 11.046-10.454 16.5-21.5 16.5l-301-3z" fill="#5d748a"/><path d="m441.5 475c0 11.05-8.95 20-20 20h-308l-35.5-263.5 35.5-231.5h20v466c0 4.971 4.029 9 9 9z" fill="#3f597d"/><path d="m442.5 188v60l-162.25 20.12-166.739-20.12v-60z" fill="#faf8f8"/><path d="m113.511 248h328.989v96h-328.989z" fill="#dc4955"/><path d="m133.5 188v60h-19.99l-8.68-32.245 8.68-27.755z" fill="#f0e9e6"/><path d="m133.5 248v96h-19.99l-11.744-53.5 11.744-42.5z" fill="#d82f3c"/><path d="m304.83 43.5 8.681 50.5-8.681 50.5-27.064-7.723-25.596 7.723-10.149-53.681 10.149-47.319z" fill="#faf8f8"/><path d="m304.83 125.5 5.276 6.851-5.276 12.149h-52.66l-12.532-9.5 12.532-9.5z" fill="#f0e9e6"/><g><path d="m327.5 430.691h-98c-4.143 0-7.5-3.358-7.5-7.5s3.357-7.5 7.5-7.5h98c4.143 0 7.5 3.358 7.5 7.5s-3.357 7.5-7.5 7.5z" fill="#3f597d"/></g><g><path d="m307.5 455.691h-58c-4.143 0-7.5-3.358-7.5-7.5s3.357-7.5 7.5-7.5h58c4.143 0 7.5 3.358 7.5 7.5s-3.357 7.5-7.5 7.5z" fill="#3f597d"/></g><g><path d="m375.5 225.5h-194c-4.143 0-7.5-3.358-7.5-7.5s3.357-7.5 7.5-7.5h194c4.143 0 7.5 3.358 7.5 7.5s-3.357 7.5-7.5 7.5z" fill="#f0e9e6"/></g><g><path d="m347.5 290.5h-138c-4.143 0-7.5-3.358-7.5-7.5s3.357-7.5 7.5-7.5h138c4.143 0 7.5 3.358 7.5 7.5s-3.357 7.5-7.5 7.5z" fill="#d82f3c"/></g><g><path d="m327.5 315.5h-98c-4.143 0-7.5-3.358-7.5-7.5s3.357-7.5 7.5-7.5h98c4.143 0 7.5 3.358 7.5 7.5s-3.357 7.5-7.5 7.5z" fill="#d82f3c"/></g><path d="m252.17 43.5v82l-5.936 14.5-31.787 2.223c-5.52 0-10-4.48-10-10l.809-73.404c0-5.52 4.48-10 10-10l3.244-5.319z" fill="#94ccd4"/><path d="m357.5 53.5v72l-7.777 4.5c0 5.52-4.48 10-10 10l-29.617-1.521-5.276-12.979v-82h42.67c5.52 0 10 4.48 10 10z" fill="#dc4955"/><path d="m252.17 125.5v19h-42.67c-5.523 0-10-4.477-10-10v-81c0-5.523 4.477-10 10-10h9v76c0 3.314 2.686 6 6 6z" fill="#6fbbc6"/><path d="m357.5 125.5v9c0 5.52-4.48 10-10 10h-42.67v-19z" fill="#d82f3c"/><path d="m113 491.5-34.5-1.5c-11.046 0-20-8.954-20-20l-3.5-447.5c0-11.046 6.454-22.5 17.5-22.5h41v475l-4.5 7.5z" fill="#94ccd4"/><path d="m113.5 475v20h-41c-11.046 0-20-8.954-20-20v-455c0-11.05 8.95-20 20-20v468c0 3.866 3.134 7 7 7z" fill="#6fbbc6"/></g></svg>